<?xml version="1.0" encoding="utf-8"?>
<!-- Generator: Adobe Illustrator 19.0.0, SVG Export Plug-In . SVG Version: 6.00 Build 0)  -->
<svg version="1.1" id="Layer_1" xmlns="http://www.w3.org/2000/svg" xmlns:xlink="http://www.w3.org/1999/xlink" x="0px" y="0px"
	 viewBox="0 0 254.4 79.4" style="enable-background:new 0 0 254.4 79.4;" xml:space="preserve">
<style type="text/css">
	.st0{fill:#1EB06C;}
</style>
<path class="st0" d="M133.9,28.2L133.9,28.2c-1.3-1.5-4-2.7-6-2.7c-6.3,0-9.8,6-9.8,12c0,7.6,3.3,13.3,9.8,13.3
	c2.6,0,4.5-1.1,6.6-3.1l0.3,2.6h4.9V16.5h-5.8V28.2z M133.9,43.9c-1.2,0.9-2,2.2-4.5,2.2c-3.5,0-5.4-2.8-5.4-8c0-5.2,2-8,5.4-8
	c1.9,0,3.3,1,4.5,2.1V43.9z M99.2,45.8L95,43.2c-1.5,1.7-2.7,2.9-5.4,2.9c-2.7,0-5-2-5.1-7h14.7v-2.4c0-5.9-3.6-11.3-9.9-11.2
	c-6.6,0-10.6,4.9-10.6,12.7c0,7.7,4,12.7,10.3,12.7C93.7,50.8,96.9,49.3,99.2,45.8z M89.2,29.8c2.8,0,4.6,2,4.7,5.3h-9.4
	C84.6,31.7,86.3,29.8,89.2,29.8z M109,30.1L109,30.1l-0.1-4.2h-5.3v24.4h5.8V35.5c0-0.6,2.5-3.9,5.4-3.9c0.4,0,0.8,0,1,0v-6.1
	C112.4,25.6,110.4,27.2,109,30.1z M209.8,25.9h-6.7l-7.2,9.4h-0.2V16.5h-5.8v33.9h5.8v-7.5l3-3.4l5.4,10.9h6.2L202.6,35L209.8,25.9z
	 M154.1,50.8c4.7,0,8-1.5,10.2-5l-4.2-2.6c-1.5,1.7-2.7,2.9-5.4,2.9s-5-2-5.1-7h14.7v-2.4c0-5.9-3.6-11.3-9.9-11.2
	c-6.6,0-10.6,4.9-10.6,12.7C143.8,45.9,147.8,50.8,154.1,50.8z M154.3,29.8c2.8,0,4.6,2,4.7,5.3h-9.4
	C149.7,31.7,151.5,29.8,154.3,29.8z M7.1,24.8c0-2.6,2-3.8,4.8-3.8c3,0,5.1,1.8,6.1,4.4l5.9-1.8c-2-4.9-6.5-7.6-12-7.6
	C6.1,16,1,19.4,1,25.5c0,10.4,17.4,9.1,17.4,15.8c0,3.3-2.5,4.5-5.7,4.5c-3.8,0-5.8-2.1-7.4-5.3L0,42.8c1.9,4.9,7.1,8,12.7,8
	c7.5,0,11.9-3.5,11.9-10.4C24.5,29.4,7.1,30.6,7.1,24.8z M42.6,43.5c-1,1.1-2.9,2.6-5.4,2.6c-2,0-3-1-3-4.3V25.9h-5.8v16.7
	c0,5,2.3,8.2,7.2,8.2c2.9,0,5.3-1.6,7.5-3.1v2.6h5.3V25.9h-5.8V43.5z M66.3,25.5c-2.6,0-4.5,1.1-6.2,2.7v-2.3h-5.6v33.3h5.8V48.1
	h0.1c1.2,1.5,3.9,2.7,5.9,2.7c6.3,0,9.8-6,9.8-12C76,31.2,72.7,25.5,66.3,25.5z M64.8,46.1c-1.9,0-3.3-1-4.5-2.1V32.3
	c1.2-0.9,2-2.2,4.5-2.2c3.5,0,5.4,2.8,5.4,8C70.2,43.3,68.2,46.1,64.8,46.1z M185.3,43.5c0-8.9-12.2-7.1-12.2-11.3
	c0-1.5,1-2.4,3.3-2.4c1.8,0,3.4,1.3,4.5,2.6l3.7-3.2c-2.1-2.5-5.3-3.7-8.6-3.7c-4.2,0-8.1,2.5-8.1,7.1c0,8.5,12.2,7,12.2,11.2
	c0,1.6-1.4,2.8-3.5,2.8c-2.5,0-4.3-1.6-5.7-3.5l-3.9,2.9c2.2,3.2,5.3,4.9,9.2,4.9C181.5,50.8,185.3,48.5,185.3,43.5z M232.2,0
	l-19.1,6.6l23.6,8.9L228,38.9l16.1-9.2l10.3-21.3L232.2,0z M86.1,70.6c0-0.9,0.7-1.3,1.7-1.3c1.1,0,1.8,0.6,2.1,1.5l2-0.6
	c-0.7-1.7-2.3-2.6-4.1-2.6c-2,0-3.8,1.2-3.8,3.3c0,3.6,6,3.1,6,5.4c0,1.1-0.9,1.6-2,1.6c-1.3,0-2-0.7-2.5-1.8l-1.8,0.8
	c0.7,1.7,2.5,2.8,4.4,2.8c2.6,0,4.1-1.2,4.1-3.6C92.1,72.2,86.1,72.6,86.1,70.6z M162.4,67.7L159,79.4h2.2l0.7-2.5h3.7l0.6,2.5h2.2
	l-3.3-11.7H162.4z M162.4,75.1l1.4-5.1h0l1.3,5.1H162.4z M177.5,73.3c1.3-0.5,1.8-1.4,1.8-2.7c-0.1-2.1-1.6-2.9-4-2.9H171v11.7h4.3
	c3,0,4.3-1.3,4.3-3.1C179.6,74.6,179,73.9,177.5,73.3z M173.2,69.5h2.2c1.1,0,1.6,0.6,1.6,1.4c0,0.8-0.5,1.4-1.6,1.4h-2.2V69.5z
	 M175.5,77.6h-2.2v-3.4h2.2c1.3,0,1.9,0.6,1.9,1.7C177.3,77,176.8,77.6,175.5,77.6z M191,71.2c0-1.9-1.1-3.5-3.7-3.5h-4.7v11.7h2.2
	v-4.8h1.9l2.2,4.8h2.5l-2.6-5.2C190.3,73.8,191,72.6,191,71.2z M186.5,72.9h-1.7v-3.3h2c1.2,0,1.9,0.6,1.9,1.7
	C188.8,72.3,188.3,72.9,186.5,72.9z M194.4,79.4h2.2V67.7h-2.2V79.4z M99.2,67.6c-3.2,0-4.9,2.2-4.9,6c0,3.8,1.7,6,4.9,6
	c3.2,0,4.9-2.2,4.9-6C104.1,69.8,102.4,67.6,99.2,67.6z M99.2,77.7c-1.8,0-2.7-1.4-2.7-4.1c0-2.7,0.8-4.1,2.7-4.1
	c1.8,0,2.7,1.4,2.7,4.1C101.9,76.3,101,77.7,99.2,77.7z M151.1,79.4h2.2v-5.2h3.9v-1.9h-3.9v-2.8h5.2v-1.9h-7.5V79.4z M204.2,77.7
	c-1.7,0-2.5-1.4-2.5-4.1c0-2.7,0.9-4.1,2.4-4.1c1.1,0,1.8,0.7,2.1,1.7l2-0.5c-0.6-2.1-1.8-3.1-4.1-3.1c-3,0-4.7,2.2-4.7,6
	c0,3.8,1.7,6,4.7,6c2.1,0,3.7-1,4.4-3.1l-2.1-0.6C205.8,77.4,205.2,77.7,204.2,77.7z M126.8,71.2c0-1.9-1.1-3.5-3.7-3.5h-4.7v11.7
	h2.2v-4.8h1.9l2.2,4.8h2.5l-2.6-5.2C126.1,73.8,126.9,72.6,126.8,71.2z M122.3,72.9h-1.7v-3.3h2c1.2,0,1.9,0.6,1.9,1.7
	C124.6,72.3,124.1,72.9,122.3,72.9z M113.2,75.2c0,1.9-0.7,2.6-2.3,2.6c-1.5,0-2.3-0.7-2.3-2.6v-7.4h-2.2v7.3c0,3.4,2.1,4.5,4.5,4.5
	c2.4,0,4.5-1.1,4.5-4.5v-7.3h-2.2V75.2z M142.8,74.3h4v-1.9h-4v-2.8h5.5v-1.9h-7.8v11.7h7.9v-1.9h-5.7V74.3z M133.8,77.7
	c-1.7,0-2.5-1.4-2.5-4.1c0-2.7,0.9-4.1,2.4-4.1c1.1,0,1.8,0.7,2.1,1.7l2-0.5c-0.6-2.1-1.8-3.1-4.1-3.1c-3,0-4.7,2.2-4.7,6
	c0,3.8,1.7,6,4.7,6c2.1,0,3.7-1,4.4-3.1l-2.1-0.6C135.4,77.4,134.8,77.7,133.8,77.7z"/>
</svg>
